<svg width="43" height="43" viewBox="0 0 43 43" fill="none" xmlns="http://www.w3.org/2000/svg">
<path d="M9.01917 16.3347C7.32463 16.7611 5.84412 17.7916 4.85579 19.2326C3.86746 20.6736 3.43935 22.4259 3.65189 24.1603C3.86442 25.8947 4.70298 27.4918 6.01 28.6515C7.31703 29.8112 9.00256 30.4537 10.7499 30.4584H12.5416M21.4999 39.4167V23.2917V39.4167ZM21.4999 39.4167L17.0208 35.8334L21.4999 39.4167ZM21.4999 39.4167L25.9791 35.8334L21.4999 39.4167Z" stroke="#FFFFFF" stroke-width="2" stroke-linecap="round" stroke-linejoin="round"/>
<path d="M28.362 12.7889C27.7496 10.364 26.2381 8.26273 24.1339 6.91094C22.0297 5.55916 19.4902 5.05806 17.0302 5.50923C14.5702 5.96039 12.3738 7.33006 10.8862 9.34059C9.39864 11.3511 8.7312 13.8521 9.01919 16.3364C9.01919 16.3364 9.29332 17.9167 9.85411 18.8125" stroke="#FFFFFF" stroke-width="2" stroke-linecap="round" stroke-linejoin="round"/>
<path d="M30.4582 30.4584C31.7232 30.4575 32.9736 30.1887 34.1273 29.6698C35.2809 29.1508 36.3115 28.3934 37.1513 27.4474C37.9912 26.5014 38.6211 25.3883 38.9997 24.1813C39.3783 22.9743 39.497 21.7008 39.348 20.4446C39.199 19.1885 38.7856 17.9781 38.1351 16.8932C37.4846 15.8083 36.6117 14.8734 35.5738 14.1502C34.536 13.427 33.3567 12.9318 32.1137 12.6971C30.8706 12.4625 29.592 12.4938 28.3619 12.7889L25.979 13.4375" stroke="#FFFFFF" stroke-width="2" stroke-linecap="round" stroke-linejoin="round"/>
</svg>