<svg width="34" height="34" viewBox="0 0 34 34" fill="none" xmlns="http://www.w3.org/2000/svg">
<circle cx="17" cy="17" r="16" stroke="#292929" stroke-width="2"/>
<path d="M27.5625 10.4568C26.7855 10.792 25.94 11.0332 25.0691 11.1272C25.9733 10.59 26.6504 9.74134 26.9734 8.74044C26.125 9.24518 25.1955 9.59911 24.2262 9.78653C23.821 9.35344 23.3311 9.00841 22.7868 8.77296C22.2425 8.53751 21.6555 8.41667 21.0625 8.41798C18.6631 8.41798 16.7334 10.3629 16.7334 12.7496C16.7334 13.0848 16.774 13.4199 16.84 13.7424C13.2473 13.5545 10.043 11.8381 7.91269 9.21017C7.52454 9.87315 7.32113 10.628 7.32363 11.3963C7.32363 12.8994 8.08789 14.2248 9.25332 15.0043C8.56651 14.9773 7.89579 14.7885 7.2957 14.4533V14.5067C7.2957 16.6115 8.78359 18.3559 10.7666 18.757C10.3943 18.8538 10.0112 18.9032 9.62656 18.9043C9.34472 18.9043 9.07812 18.8764 8.80898 18.8383C9.35742 20.5547 10.9545 21.8014 12.8562 21.842C11.3684 23.0074 9.50469 23.693 7.48105 23.693C7.11797 23.693 6.78281 23.6803 6.43496 23.6397C8.35449 24.8711 10.632 25.582 13.0848 25.582C21.0473 25.582 25.4043 18.9856 25.4043 13.26C25.4043 13.0721 25.4043 12.8842 25.3916 12.6963C26.2346 12.0793 26.9734 11.315 27.5625 10.4568Z" fill="#292929"/>
</svg>
